HIERARCHY
ROOT Hips
{
	OFFSET -3.958830 18.904000 13.208200
	CHANNELS 6 Xposition Yposition Zposition Zrotation Yrotation Xrotation 
	JOINT LHipJoint
	{
		OFFSET 0.000000 0.000000 0.000000
		CHANNELS 3 Zrotation Yrotation Xrotation
		JOINT LeftUpLeg
		{
			OFFSET 1.800000 -1.400000 0.085000
			CHANNELS 3 Zrotation Yrotation Xrotation
			JOINT LeftLeg
			{
				OFFSET 2.215000 -6.000000 0.000000
				CHANNELS 3 Zrotation Yrotation Xrotation
				JOINT LeftFoot
				{
					OFFSET 2.500000 -6.900000 0.000000
					CHANNELS 3 Zrotation Yrotation Xrotation
					JOINT LeftToeBase
					{
						OFFSET 0.200000 -0.500000 1.950000
						CHANNELS 3 Zrotation Yrotation Xrotation
						End Site
						{
							OFFSET 0.000000 0.000000 0.000000
						}
					}
				}
			}
		}
	}
	JOINT RHipJoint
	{
		OFFSET 0.000000 0.000000 0.000000
		CHANNELS 3 Zrotation Yrotation Xrotation
		JOINT RightUpLeg
		{
			OFFSET -1.800000 -1.400000 0.085000
			CHANNELS 3 Zrotation Yrotation Xrotation
			JOINT RightLeg
			{
				OFFSET -2.215000 -6.000000 0.000000
				CHANNELS 3 Zrotation Yrotation Xrotation
				JOINT RightFoot
				{
					OFFSET -2.500000 -6.900000 0.000000
					CHANNELS 3 Zrotation Yrotation Xrotation
					JOINT RightToeBase
					{
						OFFSET -0.200000 -0.500000 1.950000
						CHANNELS 3 Zrotation Yrotation Xrotation
						End Site
						{
							OFFSET 0.000000 0.000000 0.000000
						}
					}
				}
			}
		}
	}
	JOINT LowerBack
	{
		OFFSET 0.000000 0.000000 0.000000
		CHANNELS 3 Zrotation Yrotation Xrotation
		JOINT Spine
		{
			OFFSET -0.087000 1.940000 -0.288900
			CHANNELS 3 Zrotation Yrotation Xrotation
			JOINT Spine1
			{
				OFFSET 0.000000 1.950000 0.060000
				CHANNELS 3 Zrotation Yrotation Xrotation
				JOINT Neck
				{
					OFFSET 0.000000 0.000000 0.000000
					CHANNELS 3 Zrotation Yrotation Xrotation
					JOINT Neck1
					{
						OFFSET 0.000000 1.600000 0.340000
						CHANNELS 3 Zrotation Yrotation Xrotation
						JOINT Head
						{
							OFFSET 0.000000 1.667000 -0.240000
							CHANNELS 3 Zrotation Yrotation Xrotation
							End Site
							{
								OFFSET 0.000000 0.000000 0.000000
							}
						}
					}
				}
				JOINT LeftShoulder
				{
					OFFSET 0.000000 0.000000 0.000000
					CHANNELS 3 Zrotation Yrotation Xrotation
					JOINT LeftArm
					{
						OFFSET 2.700000 1.550000 -0.730000
						CHANNELS 3 Zrotation Yrotation Xrotation
						JOINT LeftForeArm
						{
							OFFSET 5.450000 0.000000 0.000000
							CHANNELS 3 Zrotation Yrotation Xrotation
							JOINT LeftHand
							{
								OFFSET 3.450000 0.000000 0.000000
								CHANNELS 3 Zrotation Yrotation Xrotation
								JOINT LeftHandIndex1
								{
									OFFSET 0.750000 0.000000 0.000000
									CHANNELS 3 Zrotation Yrotation Xrotation
									End Site
									{
										OFFSET 0.000000 0.000000 0.000000
									}
								}
							}
						}
					}
				}
				JOINT RightShoulder
				{
					OFFSET 0.000000 0.000000 0.000000
					CHANNELS 3 Zrotation Yrotation Xrotation
					JOINT RightArm
					{
						OFFSET -2.700000 1.550000 -0.730000
						CHANNELS 3 Zrotation Yrotation Xrotation
						JOINT RightForeArm
						{
							OFFSET -5.450000 0.000000 0.000000
							CHANNELS 3 Zrotation Yrotation Xrotation
							JOINT RightHand
							{
								OFFSET -3.450000 0.000000 0.000000
								CHANNELS 3 Zrotation Yrotation Xrotation
								JOINT RightHandIndex1
								{
									OFFSET -0.750000 0.000000 0.000000
									CHANNELS 3 Zrotation Yrotation Xrotation
									End Site
									{
										OFFSET 0.000000 0.000000 0.000000
									}
								}
							}
						}
					}
				}
			}
		}
	}
}
MOTION
Frames: 4
Frame Time: 0.016667
-2.549970 18.241740 -1.544740 -28.361340 43.638006 -17.520758 -15.433962 11.960515 0.918179 18.035291 -1.387448 -15.116521 3.183322 4.266966 17.685239 -1.058703 4.400554 3.007870 0.958630 0.950340 0.396540 18.622025 -7.994003 6.213124 -29.080131 4.562626 -57.211793 33.064764 -28.403227 49.490784 -1.924444 -11.858836 0.208100 0.893050 0.562930 0.316010 -4.956010 -1.498770 -8.644706 26.415064 -14.417785 32.488316 -10.341761 -7.112893 22.177165 4.047181 -0.768394 -5.321771 -1.528681 -3.326744 23.577513 3.503330 -7.096130 -17.485590 7.061520 -27.021440 0.494701 29.343266 -43.937528 -19.650317 94.990100 -22.346505 -28.587571 -4.292210 2.907303 0.196380 0.326960 -0.095080 0.426950 -13.735938 21.792606 1.285497 -27.976300 19.731475 -15.937429 -91.817336 28.750131 -33.082077 1.849836 -2.080402 -0.188870 0.555740 -0.121430 0.067850 
-2.661820 18.277460 -1.543270 -30.445438 46.174074 -18.901687 -15.446926 11.533202 0.919839 19.225526 -1.165901 -17.111940 2.036267 4.698888 17.573160 -0.923365 4.302694 3.008535 0.898390 0.872640 0.326010 18.659309 -7.878064 6.377352 -26.753011 7.455573 -59.530824 36.069498 -33.796373 54.929355 -2.423872 -13.185760 -0.036925 0.761840 0.488910 0.268740 -5.342094 -0.797612 -8.912993 28.639376 -13.984447 30.946257 -11.813639 -5.748266 22.277976 4.223498 0.193400 -6.204167 -0.722759 -5.031918 27.339063 7.863830 -8.916990 -19.237200 6.123196 -30.579149 0.830418 18.313401 -48.878363 -14.923961 101.440426 -28.996097 -39.243635 -4.068684 2.750905 0.274410 0.193500 -0.040880 0.433950 -13.278247 24.788162 2.670763 -19.785316 22.382953 -15.235725 -101.523920 31.676945 -43.820113 1.870491 -1.933451 -0.151680 0.509480 -0.137380 0.094940 
-2.752060 18.288340 -1.512730 -31.554166 49.021710 -19.009591 -15.476715 11.171991 0.979059 19.461193 -1.083895 -19.035448 0.325531 5.296809 17.976389 -0.939116 4.396004 2.957818 0.750530 0.619850 0.281860 18.674761 -7.676277 6.569789 -24.915399 10.332855 -62.576272 38.659479 -39.207671 59.999575 -2.872816 -14.480355 -0.264591 0.585950 0.439060 0.205820 -5.675534 -0.383718 -9.205324 30.080666 -13.268730 29.088365 -13.286509 -4.652392 20.563823 4.244339 0.542463 -6.883753 -1.348238 -5.692046 32.643150 11.162770 -10.088880 -21.037310 5.030192 -32.643772 1.050417 -1.826477 -51.782563 -3.370656 108.571543 -35.953632 -54.626724 -3.895381 2.414356 0.460150 0.088890 -0.031440 0.362280 -12.531546 26.799135 3.578722 -9.369303 27.607623 -11.745672 -111.289703 39.087179 -63.064340 1.787594 -1.529751 -0.243320 0.506620 -0.063490 0.017250 
-2.837980 18.270830 -1.486910 -32.482627 51.907087 -19.749624 -15.553297 11.014465 1.006211 19.312902 -0.987579 -19.809868 -0.761243 5.637037 18.154961 -0.815682 4.381503 2.951277 0.789000 0.618040 0.317530 18.607018 -7.503031 6.721120 -23.182259 13.113310 -65.041722 42.201400 -44.419145 63.596099 -3.322239 -15.624114 -0.478110 0.526080 0.362150 0.226090 -5.867048 -0.176173 -9.451253 29.964472 -12.449007 28.378378 -13.539357 -3.862538 19.538185 4.723712 0.547482 -7.579414 -1.822836 -6.253114 36.132431 13.679710 -11.462640 -21.266140 2.364077 -33.498640 2.498679 -17.403915 -50.192227 4.587399 112.608315 -44.528005 -72.470913 -3.706301 2.350385 0.492340 -0.001500 0.026600 0.385600 -10.833715 28.333231 3.510213 -0.328177 31.834151 -8.511881 -112.286911 47.790093 -76.887126 1.856512 -1.206680 -0.174190 0.420470 -0.128230 0.035920 
